<?xml version="1.0" encoding="UTF-8"?>
<svg id="Layer_1" data-name="Layer 1" xmlns="http://www.w3.org/2000/svg" viewBox="0 0 1080 1080">
  <defs>
    <style>
      .cls-1 {
        fill: #b02e25;
      }

      .cls-2 {
        fill: #e5e7de;
      }
    </style>
  </defs>
  <rect class="cls-2" x="-6.93" y="-6.93" width="1093.86" height="1093.86"/>
  <g>
    <path class="cls-1" d="M342.04,644.67c-.58-32.77,17.91-55.27,21.25-59.22,19.09-22.47,44.22-27.07,56.15-29.16,59.49-10.44,123.49,29.39,156.93,78.28,31.73,46.38,35.08,92.66,36.83,124.45,3.3,59.91-14.76,91.43-24.06,98.12-6.8,4.9-12.92,4.22-12.93,4.21-22.65-2.55-39.57-58.61-59.57-73.38-20.03-14.78-45.1-19.57-68.42-27.69-47.43-16.53-105.16-57.68-106.19-115.61Z"/>
    <ellipse class="cls-1" cx="485.78" cy="365.13" rx="154.3" ry="103.37" transform="translate(-57.01 638.41) rotate(-63.65)"/>
    <path class="cls-1" d="M627.12,606.71c48.53,69.51,44.66,153.33,43.48,231.58-.34,22.67,11.22,22.67,20.82,22.67h27.64c9.61,0,16.49-2.36,17.4-24.52v-303.05c0-.63-.03-1.24-.07-1.85-.04-21.05.93-213.29,1.57-280.95.04-4.32-1.72-14.24-9.37-21.68-13.25-12.9-41-13.73-56.2-2.19-10.04,7.63-13.06,19.42-12.85,31.19,1,55.77,0,123.05-22.08,169.9-8.52,18.08-18.82,35.27-30.81,51.18-12.09,16.03-24.22,27.93-24.53,46.2-.21,11.96,4.62,25.25,11.69,34.63"/>
  </g>
</svg>