<svg width="44" height="60" viewBox="0 0 44 60" fill="none" xmlns="http://www.w3.org/2000/svg">
    <path
        d="M26.5284 59.9004C26.9913 60.0996 27.5274 59.9883 27.8907 59.625L30.753 56.7627L33.6153 59.625C33.8526 59.874 34.1778 60 34.503 60C34.6641 60 34.8282 59.9736 34.9776 59.9004C35.4522 59.7129 35.751 59.25 35.751 58.749V52.5H42C42.6885 52.5 43.251 51.9375 43.251 51.249V1.251C43.251 0.562523 42.6885 0 42 0H2.001C1.31252 0 0.75 0.5625 0.75 1.251V51.252C0.75 51.9405 1.3125 52.503 2.001 52.503H25.752V58.752C25.752 59.25 26.0508 59.7129 26.5284 59.9004ZM33.252 55.7373L31.6407 54.126C31.1544 53.6397 30.3663 53.6397 29.877 54.126L28.251 55.7373V49.5615C29.0391 49.8369 29.877 49.998 30.75 49.998C31.626 49.998 32.4639 49.8369 33.249 49.5615L33.252 55.7373ZM30.753 47.4993C27.9903 47.4993 25.752 45.261 25.752 42.4983C25.752 39.7356 27.9903 37.4973 30.753 37.4973C33.5157 37.4973 35.754 39.7356 35.754 42.4983C35.7511 45.2639 33.5157 47.4993 30.753 47.4993ZM3.25199 50.0012V2.49922H40.752V49.9982H35.751V48.0734C37.2774 46.6994 38.25 44.7101 38.25 42.4982C38.25 38.3615 34.8867 34.9982 30.75 34.9982C26.6133 34.9982 23.25 38.3615 23.25 42.4982C23.25 44.7101 24.2256 46.6994 25.749 48.0734L25.7519 50.0011L3.25199 50.0012Z"
        fill="#B02E25" />
    <path d="M9.5 10H34.499V12.499H9.5V10Z" fill="#B02E25" />
    <path d="M5.75 17.5H38.249V19.999H5.75V17.5Z" fill="#B02E25" />
    <path d="M5.75 25H38.249V27.499H5.75V25Z" fill="#B02E25" />
</svg>
