<svg width="68" height="60" viewBox="0 0 68 60" fill="none" xmlns="http://www.w3.org/2000/svg">
<path fill-rule="evenodd" clip-rule="evenodd" d="M64.0006 51.9231C65.9131 51.9231 67.4621 53.4721 67.4621 55.3846V56.5385C67.4621 58.4509 65.9131 60 64.0006 60H4.0006C2.08813 60 0.539062 58.4509 0.539062 56.5385V55.3846C0.539062 53.4721 2.08813 51.9231 4.0006 51.9231V31.1538C4.0006 29.2414 5.54967 27.6923 7.46214 27.6923H12.0775C13.99 27.6923 15.5391 29.2414 15.5391 31.1538V51.9231H20.1544V19.6154C20.1544 17.7029 21.7035 16.1538 23.616 16.1538H28.2314C30.1438 16.1538 31.6929 17.7029 31.6929 19.6154V51.9231H36.3083V23.0773C36.3083 22.16 36.6718 21.2773 37.3237 20.6311C37.9698 19.9792 38.8525 19.6158 39.7698 19.6158H44.3852C45.3025 19.6158 46.1852 19.9792 46.8314 20.6311C47.4833 21.2773 47.8468 22.16 47.8468 23.0773V51.9231H52.4621V3.46154C52.4621 1.54907 54.0112 0 55.9237 0H60.5391C62.4515 0 64.0006 1.54907 64.0006 3.46154V51.9231ZM64.0006 54.2308H4.0006C3.3631 54.2308 2.84675 54.7471 2.84675 55.3846V56.5385C2.84675 57.176 3.3631 57.6923 4.0006 57.6923H64.0006C64.6381 57.6923 65.1544 57.176 65.1544 56.5385V55.3846C65.1544 54.7471 64.6381 54.2308 64.0006 54.2308ZM13.2314 51.9231V31.1538C13.2314 30.5163 12.715 30 12.0775 30H7.46214C6.82464 30 6.30829 30.5163 6.30829 31.1538V51.9231H13.2314ZM29.3852 51.9231V19.6154C29.3852 18.9779 28.8689 18.4615 28.2314 18.4615H23.616C22.9785 18.4615 22.4621 18.9779 22.4621 19.6154V51.9231H29.3852ZM45.5391 51.9231V23.0773C45.5391 22.7715 45.4179 22.4773 45.2016 22.2609C44.9852 22.0446 44.691 21.9234 44.3852 21.9234H39.7698C39.464 21.9234 39.1698 22.0446 38.9534 22.2609C38.7371 22.4773 38.6159 22.7715 38.6159 23.0773V51.9231H45.5391ZM61.6929 51.9231V3.46154C61.6929 2.82404 61.1766 2.30769 60.5391 2.30769H55.9237C55.2862 2.30769 54.7698 2.82404 54.7698 3.46154V51.9231H61.6929Z" fill="#B02E25"/>
</svg>
