<svg width="155" height="58" viewBox="0 0 155 58" fill="none" xmlns="http://www.w3.org/2000/svg">
<path d="M21.2507 38.2799C18.4277 34.1539 13.0255 30.7915 8.00414 31.6726C6.99667 31.8488 4.87494 32.2369 3.26406 34.1343C2.98104 34.4672 1.42178 36.3664 1.46984 39.1325C1.55706 44.0221 6.42886 47.4966 10.4338 48.8921C12.4025 49.5774 14.5189 49.9815 16.2098 51.2292C17.899 52.4752 19.3266 57.2082 21.2383 57.4236C21.2383 57.4236 21.7562 57.4805 22.3294 57.0676C23.1144 56.5033 24.638 53.8422 24.3604 48.7853C24.2126 46.1029 23.9296 42.1959 21.2525 38.2799H21.2507Z" fill="#B02E25"/>
<path d="M21.4193 19.4169C24.6124 12.9704 23.7003 6.0105 19.382 3.8716C15.0638 1.7327 8.97466 5.22473 5.78158 11.6713C2.5885 18.1178 3.50063 25.0777 7.81887 27.2166C12.1371 29.3555 18.2262 25.8634 21.4193 19.4169Z" fill="#B02E25"/>
<path d="M34.0987 4.041C32.9808 2.95165 30.6384 2.88223 29.355 3.85588C28.5078 4.50023 28.2532 5.49524 28.271 6.48847C28.3547 11.1965 28.271 16.8746 26.4074 20.8298C25.6883 22.357 24.8196 23.8077 23.8068 25.1498C22.7869 26.5025 21.7634 27.5082 21.7349 29.0497C21.7171 30.059 22.1247 31.1803 22.721 31.9724L25.5334 35.9293C29.6291 41.7961 29.3034 48.8715 29.2037 55.477C29.1752 57.3905 30.1507 57.3905 30.9623 57.3905H33.2959C34.1076 57.3905 34.6878 57.1912 34.7644 55.3204V29.7386C34.7644 29.6852 34.7608 29.6335 34.759 29.5819C34.7555 27.8055 34.8374 11.5774 34.8908 5.86726C34.8943 5.50237 34.7448 4.66578 34.0987 4.03744V4.041Z" fill="#B02E25"/>
<path d="M56.7529 29.6448C56.7529 28.6463 56.4004 27.8969 55.6938 27.3985C54.9871 26.9001 53.8337 26.5032 52.2317 26.2095L50.3467 25.8482C49.5884 25.6933 49.2111 25.2981 49.2111 24.6609C49.2111 24.2301 49.3926 23.924 49.754 23.7442C50.1153 23.5627 50.6493 23.4737 51.356 23.4737C52.0626 23.4737 52.5948 23.568 53.0096 23.7585C53.4225 23.9489 53.6557 24.3102 53.7073 24.8425L56.6514 24.7908C56.582 23.4309 56.0622 22.3968 55.0886 21.6919C54.1149 20.987 52.828 20.6328 51.2278 20.6328C49.7647 20.6328 48.5756 21.003 47.6643 21.7435C46.7512 22.484 46.2955 23.4576 46.2955 24.6627C46.2955 25.6435 46.6266 26.3839 47.2905 26.8841C47.9526 27.3843 48.9565 27.7545 50.3004 27.9948L52.1854 28.3312C52.8227 28.4345 53.2534 28.5804 53.4777 28.7709C53.702 28.9613 53.8141 29.2621 53.8141 29.6751C53.8141 30.364 52.9953 30.7075 51.3595 30.7075C50.7401 30.7075 50.2239 30.6132 49.8092 30.4227C49.3962 30.234 49.147 29.8638 49.0598 29.312L46.1406 29.3636C46.2439 30.6381 46.7512 31.6544 47.6643 32.4109C48.5774 33.1692 49.8074 33.5466 51.3577 33.5466C52.9081 33.5466 54.2591 33.1977 55.2577 32.4999C56.2562 31.8022 56.7564 30.8517 56.7564 29.6448H56.7529Z" fill="#B02E25"/>
<path d="M66.2327 33.5672H69.1768V20.6268H66.2327V28.6331C66.2327 29.3398 65.9746 29.8595 65.4584 30.1959C64.9422 30.5324 64.3299 30.6997 63.625 30.6997C62.9202 30.6997 62.3684 30.5537 61.9198 30.26C61.4713 29.9681 61.2488 29.5107 61.2488 28.8912V20.625H58.3047V28.8912C58.3047 30.3722 58.6625 31.522 59.3762 32.339C60.09 33.1578 61.085 33.5654 62.3595 33.5654C63.6339 33.5654 64.8906 33.1525 66.2345 32.3266V33.5654L66.2327 33.5672Z" fill="#B02E25"/>
<path d="M79.8192 33.5419H83.0748L77.2098 26.3614L81.9107 20.6281H78.6569L73.8795 26.4914V15.3594H70.9336V33.5169H73.8795V30.4945L75.6096 28.3764L79.8192 33.5419Z" fill="#B02E25"/>
<path d="M95.5982 20.6281H92.3444L87.5652 26.4914V15.3594H84.6211V33.5169H87.5652V30.4945L89.2971 28.3764L93.5067 33.5419H96.7605L90.8973 26.3614L95.5982 20.6281Z" fill="#B02E25"/>
<path d="M105.803 27.3985C105.096 26.9001 103.943 26.5032 102.343 26.2095L100.458 25.8482C99.6996 25.6933 99.3222 25.2981 99.3222 24.6609C99.3222 24.2301 99.5038 23.924 99.8651 23.7442C100.226 23.5627 100.76 23.4737 101.467 23.4737C102.174 23.4737 102.708 23.568 103.121 23.7585C103.534 23.9489 103.767 24.3102 103.818 24.8425L106.763 24.7908C106.693 23.4309 106.173 22.3968 105.2 21.6919C104.226 20.987 102.939 20.6328 101.339 20.6328C99.8758 20.6328 98.6868 21.003 97.7737 21.7435C96.8605 22.484 96.4049 23.4576 96.4049 24.6627C96.4049 25.6435 96.7359 26.3839 97.3999 26.8841C98.062 27.3843 99.0659 27.7545 100.41 27.9948L102.295 28.3312C102.932 28.4345 103.363 28.5804 103.587 28.7709C103.811 28.9613 103.923 29.2621 103.923 29.6751C103.923 30.364 103.105 30.7075 101.469 30.7075C100.849 30.7075 100.333 30.6132 99.9185 30.4227C99.5056 30.234 99.2546 29.8638 99.1692 29.312L96.25 29.3636C96.3532 30.6381 96.8605 31.6544 97.7737 32.4109C98.6868 33.1692 99.9168 33.5466 101.467 33.5466C103.017 33.5466 104.368 33.1977 105.367 32.4999C106.366 31.8022 106.866 30.8517 106.866 29.6448C106.866 28.6463 106.513 27.8969 105.807 27.3985H105.803Z" fill="#B02E25"/>
<path d="M115.41 20.6264C114.721 20.6264 114.036 20.7421 113.356 20.9753C112.676 21.2085 112.051 21.504 111.483 21.8671V15.4609H108.539V33.5669H111.483V25.7403C111.483 25.0693 111.693 24.5264 112.117 24.1134C112.539 23.7005 113.215 23.4851 114.144 23.4673C115.695 23.4673 116.469 24.1472 116.469 25.5071V33.5651H119.413V25.6353C119.413 24.1027 119.055 22.8852 118.341 21.981C117.626 21.0768 116.65 20.6247 115.41 20.6247V20.6264Z" fill="#B02E25"/>
<path d="M123.909 25.8172C123.909 25.1123 124.115 24.5481 124.528 24.1262C124.941 23.7044 125.603 23.4854 126.517 23.4676C127.394 23.4676 128.015 23.6527 128.377 24.023C128.738 24.3932 128.92 24.9058 128.92 25.5591V33.5654H131.839V25.8172C131.839 25.0945 132.033 24.5214 132.421 24.0995C132.809 23.6777 133.475 23.4658 134.423 23.4658C135.301 23.4658 135.886 23.6421 136.18 23.9963C136.472 24.3487 136.62 24.8702 136.62 25.5591V33.5654H139.539V25.5591C139.539 24.3202 139.375 23.343 139.048 22.6275C138.72 21.9137 138.216 21.4011 137.536 21.0914C136.856 20.7816 135.965 20.6268 134.863 20.6268C133.985 20.6268 133.209 20.8208 132.538 21.2071C131.867 21.5951 131.403 22.0383 131.143 22.5367C130.539 21.2622 129.377 20.625 127.656 20.625C127.07 20.625 126.445 20.7407 125.783 20.9739C125.119 21.2071 124.505 21.4865 123.936 21.814V20.6268H120.965V33.5672H123.909V25.819V25.8172Z" fill="#B02E25"/>
<path d="M150.978 32.5064V33.5138H153.922V20.625H150.978V21.6841C149.894 20.9792 148.68 20.625 147.336 20.625C146.131 20.625 145.024 20.9134 144.016 21.4901C143.009 22.0668 142.211 22.85 141.628 23.8414C141.042 24.8311 140.75 25.9204 140.75 27.1095C140.75 28.2985 141.042 29.3611 141.628 30.3508C142.213 31.3405 143.009 32.1254 144.016 32.7022C145.024 33.2789 146.129 33.5672 147.336 33.5672C148.68 33.5672 149.894 33.2148 150.978 32.5081V32.5064ZM144.171 28.9037C143.853 28.3608 143.694 27.7627 143.694 27.1095C143.694 26.4562 143.853 25.8528 144.171 25.301C144.49 24.7492 144.929 24.3149 145.488 23.9963C146.047 23.6777 146.663 23.5192 147.336 23.5192C148.009 23.5192 148.619 23.6794 149.169 23.9963C149.719 24.3149 150.155 24.7492 150.474 25.301C150.793 25.8528 150.951 26.4544 150.951 27.1095C150.951 27.7645 150.791 28.3626 150.474 28.9037C150.155 29.4466 149.721 29.8773 149.169 30.1959C148.618 30.5146 148.007 30.673 147.336 30.673C146.665 30.673 146.049 30.5146 145.488 30.1959C144.929 29.8773 144.49 29.4466 144.171 28.9037Z" fill="#B02E25"/>
<path d="M51.0759 40.2793C50.7092 40.071 50.2874 39.9678 49.8121 39.9678C49.4099 39.9678 49.0414 40.0586 48.7085 40.2419C48.4789 40.3683 48.2831 40.5409 48.1176 40.7545V38.0703H47.2383V44.8663H48.0802V44.0973C48.2475 44.3252 48.4487 44.5085 48.689 44.642C49.0218 44.8289 49.3956 44.9214 49.8103 44.9214C50.2874 44.9214 50.7075 44.8182 51.0741 44.61C51.4408 44.4017 51.7309 44.1133 51.9445 43.7395C52.1581 43.3675 52.2649 42.9332 52.2649 42.4384C52.2649 41.9435 52.1581 41.511 51.9445 41.1426C51.7309 40.7723 51.4408 40.484 51.0741 40.2775L51.0759 40.2793ZM51.1631 43.3426C51.019 43.6025 50.8249 43.8018 50.5775 43.9425C50.3301 44.0831 50.0506 44.1525 49.7391 44.1525C49.4277 44.1525 49.1571 44.0831 48.9097 43.9425C48.6623 43.8018 48.4665 43.6025 48.3241 43.3426C48.1799 43.0827 48.1087 42.7819 48.1087 42.4402C48.1087 42.0984 48.1799 41.7922 48.3241 41.5377C48.4682 41.2832 48.6623 41.0874 48.9097 40.9468C49.1571 40.8061 49.433 40.7367 49.7391 40.7367C50.0453 40.7367 50.3301 40.8061 50.5775 40.9468C50.8249 41.0874 51.0207 41.2849 51.1631 41.5377C51.3055 41.7905 51.3785 42.0913 51.3785 42.4402C51.3785 42.789 51.3073 43.0827 51.1631 43.3426Z" fill="#B02E25"/>
<path d="M53.9265 37.9297C53.7557 37.9297 53.6133 37.9849 53.5011 38.0952C53.3872 38.2056 53.332 38.3426 53.332 38.5082C53.332 38.6737 53.389 38.8019 53.5011 38.9105C53.6133 39.0208 53.7557 39.076 53.9265 39.076C54.0974 39.076 54.2469 39.019 54.3573 38.9069C54.4677 38.7948 54.5228 38.6541 54.5228 38.4904C54.5228 38.3266 54.4659 38.1985 54.3537 38.0917C54.2416 37.9849 54.0992 37.9315 53.9283 37.9315L53.9265 37.9297Z" fill="#B02E25"/>
<path d="M54.3637 40.0078H53.4844V44.8618H54.3637V40.0078Z" fill="#B02E25"/>
<path d="M59.4171 40.2778C59.0362 40.0677 58.6037 39.9609 58.1213 39.9609C57.6389 39.9609 57.1993 40.0677 56.8202 40.2813C56.441 40.4949 56.142 40.7868 55.923 41.1553C55.7041 41.5255 55.5938 41.9509 55.5938 42.4333C55.5938 42.9157 55.7041 43.3358 55.923 43.7114C56.1438 44.0869 56.4428 44.3806 56.8255 44.596C57.2064 44.8096 57.6389 44.9164 58.1213 44.9164C58.6037 44.9164 59.0362 44.8096 59.4171 44.596C59.7981 44.3824 60.0971 44.0887 60.3142 43.7167C60.5314 43.3447 60.64 42.9175 60.64 42.4351C60.64 41.9527 60.5314 41.5255 60.3142 41.1535C60.0971 40.7815 59.7981 40.4896 59.4171 40.2795V40.2778ZM59.54 43.3376C59.3993 43.5974 59.2053 43.7968 58.9579 43.9374C58.7105 44.078 58.431 44.1474 58.1195 44.1474C57.808 44.1474 57.5304 44.078 57.2865 43.9374C57.0426 43.7968 56.8469 43.5974 56.7009 43.3376C56.5549 43.0777 56.4802 42.7769 56.4802 42.4351C56.4802 42.0933 56.5532 41.7872 56.7009 41.5327C56.8469 41.2799 57.0426 41.0823 57.2865 40.9417C57.5304 40.8011 57.808 40.7317 58.1195 40.7317C58.431 40.7317 58.7105 40.8011 58.9579 40.9417C59.2053 41.0823 59.3993 41.2799 59.54 41.5327C59.6806 41.7854 59.75 42.0862 59.75 42.4351C59.75 42.784 59.6806 43.0777 59.54 43.3376Z" fill="#B02E25"/>
<path d="M69.4329 43.8882L67.9947 40.0078H67.2524L65.7857 43.8757L64.376 40.0078H63.543L65.3461 44.8636H66.1898L67.6084 41.1862L69.0111 44.8636H69.853L71.6668 40.0078H70.88L69.4329 43.8882Z" fill="#B02E25"/>
<path d="M72.9929 37.9297C72.8221 37.9297 72.6797 37.9849 72.5675 38.0952C72.4554 38.2056 72.3984 38.3426 72.3984 38.5082C72.3984 38.6737 72.4554 38.8019 72.5675 38.9105C72.6797 39.019 72.8221 39.076 72.9929 39.076C73.1638 39.076 73.3133 39.019 73.4237 38.9069C73.5341 38.7948 73.5892 38.6541 73.5892 38.4904C73.5892 38.3266 73.5323 38.1985 73.4201 38.0917C73.3062 37.9849 73.1656 37.9315 72.9947 37.9315L72.9929 37.9297Z" fill="#B02E25"/>
<path d="M73.434 40.0078H72.5547V44.8618H73.434V40.0078Z" fill="#B02E25"/>
<path d="M76.852 44.1767C76.6081 44.1767 76.4195 44.1073 76.2877 43.9666C76.156 43.826 76.0901 43.6249 76.0901 43.3614V40.7324H77.4821V40.008H76.0901V38.9453H75.2108V40.008H74.3867V40.7324H75.2108V43.397C75.2108 43.8865 75.3443 44.2603 75.6131 44.5238C75.8819 44.7872 76.2592 44.9171 76.7487 44.9171C76.9499 44.9171 77.1439 44.8904 77.3308 44.8353C77.5159 44.7801 77.6779 44.6946 77.8114 44.5789L77.5373 43.947C77.3539 44.1001 77.1243 44.1767 76.8502 44.1767H76.852Z" fill="#B02E25"/>
<path d="M82.5151 40.1974C82.2125 40.0443 81.8636 39.9678 81.4666 39.9678C81.027 39.9678 80.6425 40.0568 80.3132 40.233C80.0854 40.3558 79.9003 40.5142 79.7543 40.7029V38.0703H78.875V44.8663H79.7543V42.3654C79.7543 42.0112 79.8166 41.7157 79.9412 41.4772C80.0658 41.2387 80.2456 41.0589 80.477 40.9361C80.7084 40.8133 80.9807 40.7527 81.2922 40.7527C81.7069 40.7527 82.0291 40.872 82.2587 41.1105C82.4884 41.349 82.6023 41.7032 82.6023 42.1732V44.8663H83.4816V42.0717C83.4816 41.5947 83.3961 41.2013 83.2253 40.8898C83.0544 40.5783 82.8177 40.3469 82.5151 40.1938V40.1974Z" fill="#B02E25"/>
<path d="M85.5515 37.9297C85.3807 37.9297 85.2383 37.9849 85.1261 38.0952C85.014 38.2056 84.957 38.3426 84.957 38.5082C84.957 38.6737 85.014 38.8019 85.1261 38.9105C85.2383 39.019 85.3807 39.076 85.5515 39.076C85.7224 39.076 85.8719 39.019 85.9823 38.9069C86.0927 38.7948 86.1478 38.6541 86.1478 38.4904C86.1478 38.3266 86.0909 38.1985 85.9787 38.0917C85.8648 37.9849 85.7242 37.9315 85.5533 37.9315L85.5515 37.9297Z" fill="#B02E25"/>
<path d="M85.9926 40.0078H85.1133V44.8618H85.9926V40.0078Z" fill="#B02E25"/>
<path d="M91.3101 40.1906C91.0075 40.0375 90.6587 39.9609 90.2617 39.9609C89.8221 39.9609 89.4376 40.0499 89.1083 40.2262C88.8627 40.3579 88.6633 40.5305 88.5138 40.7406V40.0072H87.6719V44.8612H88.5512V42.3603C88.5512 42.0061 88.6135 41.7107 88.7381 41.4721C88.8627 41.2336 89.0425 41.0538 89.2739 40.931C89.5053 40.8082 89.7776 40.7477 90.0891 40.7477C90.5038 40.7477 90.826 40.8669 91.0556 41.1055C91.2852 41.344 91.3991 41.6982 91.3991 42.1681V44.8612H92.2784V42.0666C92.2784 41.5896 92.193 41.1962 92.0221 40.8847C91.8513 40.5733 91.6145 40.3418 91.3119 40.1888L91.3101 40.1906Z" fill="#B02E25"/>
<path d="M94.1279 43.6641C93.9571 43.6641 93.8111 43.7228 93.6936 43.8385C93.5744 43.9542 93.5156 44.1037 93.5156 44.2871C93.5156 44.4704 93.5744 44.6253 93.6936 44.7356C93.7541 44.7908 93.8218 44.8335 93.8965 44.8602L93.5601 46.2201H94.1368L94.5676 44.9474C94.6103 44.8371 94.6424 44.7445 94.6637 44.668C94.6851 44.5914 94.7011 44.5238 94.71 44.4668C94.7189 44.4081 94.7242 44.3494 94.7242 44.2888C94.7242 44.1126 94.669 43.9631 94.5587 43.8438C94.4483 43.7246 94.3059 43.6658 94.1279 43.6658V43.6641Z" fill="#B02E25"/>
<path d="M100.217 44.1767C99.9735 44.1767 99.7849 44.1073 99.6549 43.9666C99.5232 43.826 99.4573 43.6249 99.4573 43.3614V40.7324H100.849V40.008H99.4573V38.9453H98.578V40.008H97.7539V40.7324H98.578V43.397C98.578 43.8865 98.7115 44.2603 98.9803 44.5238C99.2491 44.7872 99.6282 44.9171 100.116 44.9171C100.317 44.9171 100.511 44.8904 100.698 44.8353C100.885 44.7801 101.045 44.6946 101.179 44.5789L100.904 43.947C100.721 44.1001 100.493 44.1767 100.217 44.1767Z" fill="#B02E25"/>
<path d="M105.312 40.2802C104.952 40.072 104.536 39.9688 104.066 39.9688C103.596 39.9688 103.185 40.0738 102.816 40.2856C102.446 40.4956 102.156 40.7875 101.946 41.1596C101.736 41.5316 101.629 41.9588 101.629 42.4411C101.629 42.9235 101.737 43.3507 101.955 43.7227C102.172 44.0947 102.476 44.3884 102.871 44.602C103.265 44.8156 103.722 44.9224 104.24 44.9224C104.642 44.9224 105.007 44.8548 105.335 44.7213C105.661 44.5878 105.935 44.392 106.155 44.1357L105.669 43.5679C105.491 43.7637 105.287 43.9096 105.052 44.0075C104.817 44.1054 104.555 44.1535 104.269 44.1535C103.92 44.1535 103.612 44.0841 103.343 43.9434C103.074 43.8028 102.866 43.6052 102.716 43.3525C102.606 43.1656 102.537 42.9591 102.508 42.7348H106.449C106.454 42.6921 106.46 42.6458 106.463 42.5978C106.467 42.5497 106.469 42.507 106.469 42.4696C106.469 41.9695 106.365 41.5316 106.163 41.156C105.958 40.7804 105.675 40.4885 105.315 40.282L105.312 40.2802ZM103.25 40.9157C103.489 40.7786 103.76 40.7092 104.066 40.7092C104.372 40.7092 104.65 40.7786 104.886 40.9157C105.121 41.0528 105.306 41.2432 105.44 41.4889C105.541 41.674 105.602 41.8787 105.623 42.103H102.503C102.528 41.8805 102.59 41.6775 102.692 41.4942C102.825 41.2468 103.012 41.0545 103.25 40.9175V40.9157Z" fill="#B02E25"/>
<path d="M108.936 40.9417C109.187 40.8011 109.47 40.7317 109.789 40.7317C110.05 40.7317 110.298 40.7886 110.526 40.9008C110.753 41.0129 110.949 41.1891 111.108 41.4276L111.777 40.9969C111.588 40.6551 111.321 40.397 110.976 40.2226C110.631 40.0482 110.239 39.9609 109.799 39.9609C109.304 39.9609 108.863 40.066 108.475 40.2778C108.087 40.4878 107.784 40.7797 107.564 41.1517C107.345 41.5238 107.234 41.9509 107.234 42.4333C107.234 42.9157 107.345 43.3429 107.564 43.7149C107.784 44.0869 108.087 44.3806 108.475 44.5942C108.863 44.8078 109.304 44.9146 109.799 44.9146C110.239 44.9146 110.631 44.8238 110.976 44.6441C111.321 44.4643 111.588 44.2062 111.777 43.8698L111.108 43.4479C110.949 43.6864 110.755 43.8609 110.526 43.9748C110.296 44.0887 110.05 44.1439 109.789 44.1439C109.472 44.1439 109.187 44.0745 108.936 43.9339C108.685 43.7932 108.487 43.5956 108.342 43.3393C108.196 43.083 108.121 42.7804 108.121 42.4333C108.121 42.0862 108.194 41.7854 108.342 41.5309C108.487 41.2781 108.687 41.0805 108.936 40.9399V40.9417Z" fill="#B02E25"/>
<path d="M116.488 40.1974C116.185 40.0443 115.836 39.9678 115.439 39.9678C115 39.9678 114.615 40.0568 114.286 40.233C114.058 40.3558 113.873 40.5142 113.727 40.7029V38.0703H112.848V44.8663H113.727V42.3654C113.727 42.0112 113.789 41.7157 113.914 41.4772C114.038 41.2387 114.218 41.0589 114.45 40.9361C114.681 40.8133 114.953 40.7527 115.265 40.7527C115.68 40.7527 116.002 40.872 116.231 41.1105C116.461 41.349 116.575 41.7032 116.575 42.1732V44.8663H117.454V42.0717C117.454 41.5947 117.369 41.2013 117.198 40.8898C117.027 40.5783 116.79 40.3469 116.488 40.1938V40.1974Z" fill="#B02E25"/>
<path d="M125.388 40.2793C125.022 40.071 124.6 39.9678 124.125 39.9678C123.722 39.9678 123.354 40.0586 123.021 40.2419C122.791 40.3683 122.596 40.5409 122.43 40.7545V38.0703H121.551V44.8663H122.393V44.0973C122.56 44.3252 122.761 44.5085 123.001 44.642C123.334 44.8289 123.708 44.9214 124.123 44.9214C124.6 44.9214 125.02 44.8182 125.387 44.61C125.753 44.4017 126.043 44.1133 126.257 43.7395C126.471 43.3675 126.577 42.9332 126.577 42.4384C126.577 41.9435 126.471 41.511 126.257 41.1426C126.043 40.7723 125.753 40.484 125.387 40.2775L125.388 40.2793ZM125.476 43.3426C125.331 43.6025 125.137 43.8018 124.89 43.9425C124.643 44.0831 124.363 44.1525 124.052 44.1525C123.74 44.1525 123.47 44.0831 123.222 43.9425C122.975 43.8018 122.779 43.6025 122.637 43.3426C122.492 43.0827 122.421 42.7819 122.421 42.4402C122.421 42.0984 122.492 41.7922 122.637 41.5377C122.781 41.2832 122.975 41.0874 123.222 40.9468C123.47 40.8061 123.745 40.7367 124.052 40.7367C124.358 40.7367 124.643 40.8061 124.89 40.9468C125.137 41.0874 125.333 41.2849 125.476 41.5377C125.618 41.7905 125.691 42.0913 125.691 42.4402C125.691 42.789 125.62 43.0827 125.476 43.3426Z" fill="#B02E25"/>
<path d="M131.03 40.2802C130.671 40.072 130.254 39.9688 129.784 39.9688C129.315 39.9688 128.903 40.0738 128.535 40.2856C128.165 40.4956 127.875 40.7875 127.664 41.1596C127.454 41.5316 127.348 41.9588 127.348 42.4411C127.348 42.9235 127.456 43.3507 127.673 43.7227C127.891 44.0947 128.195 44.3884 128.59 44.602C128.983 44.8156 129.441 44.9224 129.959 44.9224C130.361 44.9224 130.726 44.8548 131.054 44.7213C131.379 44.5878 131.653 44.392 131.874 44.1357L131.388 43.5679C131.21 43.7637 131.006 43.9096 130.771 44.0075C130.536 44.1054 130.274 44.1535 129.987 44.1535C129.638 44.1535 129.331 44.0841 129.062 43.9434C128.793 43.8028 128.585 43.6052 128.435 43.3525C128.325 43.1656 128.255 42.9591 128.227 42.7348H132.168C132.173 42.6921 132.179 42.6458 132.182 42.5978C132.186 42.5497 132.187 42.507 132.187 42.4696C132.187 41.9695 132.084 41.5316 131.881 41.156C131.677 40.7804 131.394 40.4885 131.034 40.282L131.03 40.2802ZM128.969 40.9157C129.208 40.7786 129.478 40.7092 129.784 40.7092C130.091 40.7092 130.368 40.7786 130.605 40.9157C130.84 41.0528 131.025 41.2432 131.159 41.4889C131.26 41.674 131.321 41.8787 131.342 42.103H128.222C128.247 41.8805 128.309 41.6775 128.41 41.4942C128.544 41.2468 128.731 41.0545 128.969 40.9175V40.9157Z" fill="#B02E25"/>
<path d="M135.141 43.8942L133.448 40.0156H132.531L134.674 44.8572L134.52 45.1989C134.397 45.4802 134.267 45.676 134.126 45.7845C133.986 45.8931 133.809 45.9501 133.596 45.9501C133.43 45.9501 133.275 45.9198 133.129 45.8593C132.983 45.7988 132.848 45.7098 132.727 45.5941L132.352 46.2527C132.51 46.3986 132.7 46.5108 132.919 46.5873C133.14 46.6639 133.364 46.7012 133.598 46.7012C133.849 46.7012 134.076 46.6603 134.285 46.5784C134.493 46.4965 134.683 46.3577 134.858 46.1619C135.032 45.9661 135.189 45.6973 135.329 45.3556L137.684 40.0156H136.823L135.146 43.8942H135.141Z" fill="#B02E25"/>
<path d="M141.741 40.2778C141.36 40.0677 140.928 39.9609 140.446 39.9609C139.963 39.9609 139.524 40.0677 139.144 40.2813C138.765 40.4949 138.466 40.7868 138.247 41.1553C138.028 41.5255 137.918 41.9509 137.918 42.4333C137.918 42.9157 138.028 43.3358 138.247 43.7114C138.468 44.0869 138.767 44.3806 139.15 44.596C139.532 44.8114 139.963 44.9164 140.446 44.9164C140.928 44.9164 141.36 44.8096 141.741 44.596C142.122 44.3824 142.423 44.0887 142.638 43.7167C142.856 43.3447 142.964 42.9175 142.964 42.4351C142.964 41.9527 142.856 41.5255 142.638 41.1535C142.421 40.7815 142.122 40.4896 141.741 40.2795V40.2778ZM141.866 43.3376C141.725 43.5974 141.531 43.7968 141.284 43.9374C141.036 44.078 140.757 44.1474 140.446 44.1474C140.134 44.1474 139.856 44.078 139.613 43.9374C139.369 43.7968 139.173 43.5974 139.027 43.3376C138.881 43.0777 138.806 42.7769 138.806 42.4351C138.806 42.0933 138.879 41.7872 139.027 41.5327C139.175 41.2781 139.369 41.0823 139.613 40.9417C139.856 40.8011 140.134 40.7317 140.446 40.7317C140.757 40.7317 141.036 40.8011 141.284 40.9417C141.531 41.0823 141.725 41.2799 141.866 41.5327C142.007 41.7854 142.076 42.0862 142.076 42.4351C142.076 42.784 142.007 43.0777 141.866 43.3376Z" fill="#B02E25"/>
<path d="M147.822 40.1906C147.519 40.0375 147.17 39.9609 146.773 39.9609C146.334 39.9609 145.949 40.0499 145.62 40.2262C145.374 40.3579 145.175 40.5305 145.026 40.7406V40.0072H144.184V44.8612H145.063V42.3603C145.063 42.0061 145.125 41.7107 145.25 41.4721C145.374 41.2336 145.554 41.0538 145.786 40.931C146.017 40.8082 146.289 40.7477 146.601 40.7477C147.016 40.7477 147.338 40.8669 147.567 41.1055C147.797 41.344 147.911 41.6982 147.911 42.1681V44.8612H148.79V42.0666C148.79 41.5896 148.705 41.1962 148.534 40.8847C148.363 40.5733 148.126 40.3418 147.824 40.1888L147.822 40.1906Z" fill="#B02E25"/>
<path d="M154.122 38.0703V40.7545C153.956 40.5409 153.762 40.3683 153.536 40.2419C153.207 40.0586 152.837 39.9678 152.427 39.9678C151.957 39.9678 151.537 40.071 151.167 40.2793C150.797 40.4875 150.507 40.7759 150.293 41.1443C150.079 41.5146 149.973 41.9453 149.973 42.4402C149.973 42.935 150.079 43.3675 150.293 43.7413C150.507 44.1133 150.799 44.4035 151.167 44.6117C151.537 44.82 151.956 44.9232 152.427 44.9232C152.849 44.9232 153.225 44.8307 153.554 44.6438C153.791 44.5103 153.992 44.3269 154.159 44.0991V44.8681H155.001V38.0721H154.122V38.0703ZM153.915 43.3408C153.771 43.6007 153.577 43.8001 153.33 43.9407C153.082 44.0813 152.806 44.1507 152.5 44.1507C152.194 44.1507 151.911 44.0813 151.667 43.9407C151.423 43.8001 151.228 43.6007 151.082 43.3408C150.936 43.0809 150.861 42.7801 150.861 42.4384C150.861 42.0966 150.934 41.7905 151.082 41.5359C151.228 41.2832 151.423 41.0856 151.667 40.945C151.911 40.8044 152.189 40.7349 152.5 40.7349C152.812 40.7349 153.082 40.8044 153.33 40.945C153.577 41.0856 153.773 41.2832 153.915 41.5359C154.058 41.7887 154.131 42.0895 154.131 42.4384C154.131 42.7873 154.059 43.0809 153.915 43.3408Z" fill="#B02E25"/>
</svg>
