<svg width="52" height="60" viewBox="0 0 52 60" fill="none" xmlns="http://www.w3.org/2000/svg">
<path fill-rule="evenodd" clip-rule="evenodd" d="M26.0023 0C25.9015 0 25.8006 0.0155176 25.7049 0.0439656L1.69678 7.28309C1.25971 7.41757 0.962278 7.81844 0.96486 8.2762V35.0955C0.96486 42.3346 7.29337 48.4376 13.3966 52.8265C19.5002 57.2154 25.5828 59.9127 25.5828 59.9127C25.8492 60.0291 26.1543 60.0291 26.4207 59.9127C26.4207 59.9127 32.5061 57.2127 38.6068 52.8265C44.7104 48.4377 51.0386 42.334 51.0386 35.0955V8.2762C51.0412 7.81844 50.7438 7.41756 50.3067 7.28309L26.3012 0.0439656C26.2029 0.0155176 26.1021 0 26.0012 0H26.0023ZM26.0023 2.11294L48.9704 9.03891V35.0929C48.9704 41.08 43.3014 46.9016 37.402 51.1455C31.7122 55.2369 26.4003 57.593 26.0017 57.7716C25.6034 57.5931 20.2913 55.2371 14.6014 51.1455C8.70221 46.9041 3.033 41.0826 3.033 35.0929V9.03891L26.0023 2.11294ZM26.0023 13.345C16.777 13.345 9.27172 20.8139 9.27172 29.9975C9.27172 39.1838 16.777 46.6454 26.0023 46.6454C35.2277 46.6454 42.733 39.1838 42.733 29.9975C42.733 20.8113 35.2277 13.345 26.0023 13.345ZM26.0023 15.414C34.1154 15.414 40.664 21.9365 40.664 29.9975C40.664 38.059 34.1157 44.5738 26.0023 44.5738C17.889 44.5738 11.3434 38.0591 11.3434 29.9975C11.3434 21.9361 17.8891 15.414 26.0023 15.414ZM32.6668 24.3805C32.3927 24.396 32.134 24.5202 31.9504 24.7245L23.3229 34.2391L18.96 30.1994H18.9626C18.5436 29.8141 17.8945 29.8373 17.504 30.2537C17.1186 30.6701 17.1419 31.3219 17.5583 31.7123L22.6816 36.471V36.4684C22.8833 36.6598 23.1549 36.7581 23.4316 36.7477C23.7083 36.7348 23.9695 36.6133 24.1558 36.4064L33.4871 26.1131C33.6707 25.9088 33.769 25.6398 33.756 25.3657C33.7431 25.0915 33.6215 24.8329 33.4172 24.6493C33.2129 24.4631 32.9435 24.3676 32.6668 24.3805Z" fill="#B02E25"/>
</svg>
