<svg width="46" height="60" viewBox="0 0 46 60" fill="none" xmlns="http://www.w3.org/2000/svg">
<path fill-rule="evenodd" clip-rule="evenodd" d="M41.6357 1.81818H4.36293C3.35877 1.81818 2.54474 2.63221 2.54474 3.63636V56.3636C2.54474 57.3678 3.35877 58.1818 4.36293 58.1818H41.6357C42.6398 58.1818 43.4538 57.3678 43.4538 56.3636V3.63636C43.4538 2.63221 42.6398 1.81818 41.6357 1.81818ZM4.36293 0C2.35462 0 0.726562 1.62806 0.726562 3.63636V56.3636C0.726562 58.3719 2.35462 60 4.36293 60H41.6357C43.644 60 45.272 58.3719 45.272 56.3636V3.63636C45.272 1.62806 43.644 0 41.6357 0H4.36293Z" fill="#B02E25"/>
<path fill-rule="evenodd" clip-rule="evenodd" d="M41.6374 1.81818H10.7283V58.1818H41.6374C42.6416 58.1818 43.4556 57.3678 43.4556 56.3636V3.63636C43.4556 2.63221 42.6416 1.81818 41.6374 1.81818ZM8.91016 0V60H41.6374C43.6457 60 45.2738 58.3719 45.2738 56.3636V3.63636C45.2738 1.62806 43.6457 0 41.6374 0H8.91016Z" fill="#B02E25"/>
<path d="M24.6977 33.4728V33.0503C24.7025 32.2259 24.7865 31.5555 24.9498 31.039C25.113 30.5225 25.3531 30.0869 25.67 29.7321C25.9917 29.3722 26.3902 29.0278 26.8656 28.6991C27.2209 28.4487 27.5186 28.1853 27.7587 27.9087C28.0036 27.627 28.1884 27.3192 28.3133 26.9853C28.4429 26.6462 28.5077 26.2784 28.5077 25.8819C28.5077 25.3184 28.3853 24.8254 28.1404 24.4028C27.9003 23.9802 27.5738 23.6541 27.1609 23.4246C26.748 23.1898 26.2894 23.0724 25.7852 23.0724C25.3051 23.0724 24.8561 23.1872 24.4384 23.4168C24.0255 23.6411 23.687 23.975 23.4229 24.4185C23.1636 24.8567 23.022 25.3993 22.998 26.0462H21.6367C21.6607 25.1854 21.8576 24.4393 22.2273 23.8081C22.597 23.1768 23.0916 22.689 23.711 22.3446C24.3304 21.9951 25.0218 21.8203 25.7852 21.8203C26.5823 21.8203 27.2833 22.0003 27.8883 22.3603C28.4933 22.7151 28.9663 23.2029 29.3072 23.8237C29.6481 24.4393 29.8185 25.1463 29.8185 25.9445C29.8185 26.4714 29.7417 26.9514 29.5881 27.3844C29.4344 27.8174 29.2039 28.2166 28.8966 28.5818C28.5941 28.947 28.2148 29.2913 27.7587 29.6148C27.3265 29.9278 26.9832 30.2382 26.7287 30.546C26.4743 30.8538 26.2918 31.206 26.1814 31.6025C26.0709 31.9938 26.0109 32.4764 26.0013 33.0503V33.4728H24.6977ZM25.3891 38.1839C25.1058 38.1839 24.861 38.0744 24.6545 37.8553C24.4528 37.6309 24.352 37.3649 24.352 37.057C24.352 36.744 24.4528 36.4779 24.6545 36.2588C24.861 36.0397 25.1058 35.9301 25.3891 35.9301C25.6724 35.9301 25.9149 36.0397 26.1166 36.2588C26.323 36.4779 26.4263 36.744 26.4263 37.057C26.4263 37.2605 26.3782 37.4483 26.2822 37.6205C26.191 37.7927 26.0661 37.9309 25.9077 38.0353C25.754 38.1344 25.5812 38.1839 25.3891 38.1839Z" fill="#B02E25"/>
<path fill-rule="evenodd" clip-rule="evenodd" d="M24.2418 33.9288V33.049C24.2467 32.2003 24.3328 31.4798 24.515 30.9035C24.695 30.3341 24.9643 29.8397 25.3297 29.4308C25.679 29.0398 26.1055 28.6728 26.604 28.3279C26.934 28.0952 27.2024 27.856 27.4141 27.6122C27.625 27.3695 27.7812 27.1082 27.8861 26.8275L27.8873 26.8244C27.9954 26.5417 28.0518 26.2294 28.0518 25.8833C28.0518 25.3874 27.9447 24.9754 27.7458 24.6321L27.7438 24.6288C27.5437 24.2765 27.2766 24.0111 26.9387 23.8233L26.9349 23.8212C26.5946 23.6277 26.2143 23.5284 25.7839 23.5284C25.3797 23.5284 25.0061 23.6241 24.656 23.8165L24.6541 23.8176C24.32 23.9991 24.0389 24.2718 23.8124 24.6519C23.601 25.0095 23.4728 25.4735 23.4508 26.0645L23.4346 26.5022H21.168L21.181 26.035C21.2068 25.1113 21.419 24.2878 21.8337 23.5798C22.2429 22.8811 22.7952 22.3346 23.4875 21.9495C24.1797 21.5591 24.9486 21.3672 25.7839 21.3672C26.6512 21.3672 27.4342 21.5637 28.1181 21.9703C28.7938 22.3669 29.3241 22.9144 29.7039 23.6056C30.0866 24.2971 30.2717 25.0814 30.2717 25.9459C30.2717 26.5171 30.1884 27.0494 30.0151 27.5378C29.8427 28.0236 29.5847 28.4696 29.2442 28.8745C28.913 29.2742 28.5038 29.6439 28.0222 29.9856C27.6123 30.2827 27.3008 30.5672 27.0777 30.8371C26.8651 31.0942 26.7118 31.3889 26.6179 31.7259L26.6175 31.7274C26.5213 32.0682 26.4639 32.5079 26.4545 33.0555V33.9288H24.2418ZM26 33.0517C26.0096 32.4778 26.0696 31.9952 26.18 31.6039C26.2905 31.2074 26.4729 30.8553 26.7274 30.5474C26.9819 30.2396 27.3252 29.9292 27.7573 29.6162C28.2135 29.2927 28.5928 28.9484 28.8953 28.5832C29.2026 28.218 29.4331 27.8189 29.5867 27.3858C29.7404 26.9528 29.8172 26.4728 29.8172 25.9459C29.8172 25.1477 29.6467 24.4407 29.3058 23.8251C28.9649 23.2043 28.492 22.7165 27.887 22.3617C27.282 22.0017 26.581 21.8217 25.7839 21.8217C25.0205 21.8217 24.329 21.9965 23.7096 22.3461C23.0902 22.6904 22.5957 23.1782 22.226 23.8095C21.9229 24.3269 21.736 24.9214 21.6652 25.5931C21.6496 25.7409 21.6397 25.8924 21.6354 26.0476H22.9966C23.0206 25.4007 23.1623 24.8581 23.4215 24.4199C23.6856 23.9764 24.0241 23.6425 24.4371 23.4182C24.8548 23.1886 25.3037 23.0739 25.7839 23.0739C26.2881 23.0739 26.7466 23.1912 27.1595 23.426C27.5725 23.6556 27.899 23.9816 28.139 24.4042C28.3839 24.8268 28.5064 25.3198 28.5064 25.8833C28.5064 26.2798 28.4415 26.6476 28.3119 26.9867C28.1871 27.3206 28.0022 27.6284 27.7573 27.9102C27.5173 28.1867 27.2196 28.4501 26.8642 28.7006C26.3889 29.0292 25.9904 29.3736 25.6687 29.7336C25.3518 30.0883 25.1117 30.524 24.9484 31.0405C24.7873 31.5503 24.7033 32.21 24.6966 33.0197C24.6965 33.0303 24.6964 33.041 24.6963 33.0517V33.4743H26V33.0517Z" fill="#B02E25"/>
<path fill-rule="evenodd" clip-rule="evenodd" d="M24.3151 38.1606C24.0367 37.8509 23.8961 37.4759 23.8961 37.0585C23.8961 36.6378 24.0356 36.2601 24.3187 35.9524L24.3223 35.9485C24.6086 35.6446 24.9707 35.477 25.3878 35.477C25.8044 35.477 26.1654 35.6445 26.4479 35.9505C26.736 36.2572 26.8794 36.6356 26.8794 37.0585C26.8794 37.3352 26.8136 37.5981 26.6802 37.8391C26.5544 38.0748 26.3789 38.2697 26.1563 38.4163L26.1528 38.4187C25.9219 38.5676 25.6626 38.6399 25.3878 38.6399C24.9707 38.6399 24.6086 38.4723 24.3223 38.1684L24.3151 38.1606ZM26.2809 37.6219C26.3769 37.4497 26.4249 37.2619 26.4249 37.0585C26.4249 36.7454 26.3217 36.4794 26.1152 36.2602C25.9135 36.0411 25.6711 35.9316 25.3878 35.9316C25.1045 35.9316 24.8596 36.0411 24.6531 36.2602C24.4515 36.4794 24.3506 36.7454 24.3506 37.0585C24.3506 37.3663 24.4515 37.6323 24.6531 37.8567C24.8596 38.0758 25.1045 38.1854 25.3878 38.1854C25.5798 38.1854 25.7527 38.1358 25.9063 38.0367C26.0648 37.9323 26.1896 37.7941 26.2809 37.6219Z" fill="#B02E25"/>
</svg>
